<svg xmlns="http://www.w3.org/2000/svg" xmlns:xlink="http://www.w3.org/1999/xlink" width="500" zoomAndPan="magnify" viewBox="0 0 375 374.999991" height="500" preserveAspectRatio="xMidYMid meet" version="1.0"><defs><clipPath id="67b4d9e15a"><path d="M 20 1.507812 L 279 1.507812 L 279 375 L 20 375 Z M 20 1.507812 " clip-rule="nonzero"/></clipPath></defs><g clip-path="url(#67b4d9e15a)"><path fill="#000000" d="M 230.667969 102.785156 L 264.710938 71.46875 L 264.710938 23.199219 C 264.710938 22.304688 264.796875 21.414062 264.972656 20.53125 C 265.148438 19.652344 265.40625 18.796875 265.75 17.96875 C 266.089844 17.136719 266.511719 16.347656 267.007812 15.601562 C 267.503906 14.855469 268.070312 14.160156 268.703125 13.523438 C 269.335938 12.890625 270.027344 12.320312 270.769531 11.820312 C 271.515625 11.316406 272.300781 10.894531 273.128906 10.546875 C 273.957031 10.199219 274.8125 9.9375 275.691406 9.757812 C 276.570312 9.578125 277.460938 9.488281 278.359375 9.480469 L 278.359375 1.796875 L 96.28125 1.796875 L 96.28125 9.480469 C 97.183594 9.480469 98.074219 9.570312 98.960938 9.746094 C 99.84375 9.921875 100.699219 10.179688 101.53125 10.527344 C 102.363281 10.871094 103.15625 11.292969 103.902344 11.792969 C 104.652344 12.292969 105.347656 12.863281 105.984375 13.5 C 106.621094 14.136719 107.1875 14.828125 107.6875 15.578125 C 108.191406 16.328125 108.613281 17.117188 108.957031 17.949219 C 109.300781 18.78125 109.5625 19.640625 109.738281 20.523438 C 109.914062 21.40625 110 22.300781 110 23.199219 L 110 83.25 L 74.089844 49.992188 L 52.542969 30.3125 L 39.898438 40.082031 L 39.324219 40.511719 L 20.003906 55.378906 C 21.445312 55.878906 22.839844 56.488281 24.1875 57.207031 C 25.535156 57.925781 26.816406 58.742188 28.035156 59.65625 C 29.257812 60.574219 30.398438 61.578125 31.464844 62.671875 C 32.527344 63.765625 33.5 64.933594 34.382812 66.179688 C 35.265625 67.425781 36.050781 68.730469 36.730469 70.09375 C 37.410156 71.460938 37.980469 72.871094 38.441406 74.324219 C 38.90625 75.78125 39.253906 77.261719 39.484375 78.769531 C 39.71875 80.277344 39.832031 81.792969 39.828125 83.320312 L 39.828125 235.304688 C 39.835938 237.703125 39.558594 240.066406 38.988281 242.394531 C 38.417969 244.722656 37.574219 246.945312 36.460938 249.070312 C 35.347656 251.191406 33.992188 253.148438 32.398438 254.9375 C 30.808594 256.730469 29.023438 258.300781 27.042969 259.65625 L 39.828125 272.226562 L 41.265625 273.589844 L 49.308594 281.492188 L 55.703125 287.738281 L 61.015625 293.054688 L 73.875 305.335938 L 73.875 72.332031 L 109.785156 105.585938 L 109.785156 304.042969 C 109.785156 306.449219 109.5 308.816406 108.921875 311.152344 C 108.347656 313.488281 107.5 315.71875 106.378906 317.84375 C 105.257812 319.972656 103.898438 321.933594 102.300781 323.730469 C 100.703125 325.527344 98.910156 327.105469 96.929688 328.464844 L 110 341.25 L 144.046875 374.648438 L 144.046875 19.320312 L 230.667969 19.320312 Z M 230.667969 102.785156 " fill-opacity="1" fill-rule="nonzero"/></g><path fill="#000000" d="M 334.882812 235.304688 L 334.882812 83.320312 C 334.882812 81.792969 334.996094 80.277344 335.226562 78.769531 C 335.460938 77.261719 335.808594 75.78125 336.269531 74.324219 C 336.730469 72.871094 337.300781 71.460938 337.984375 70.09375 C 338.664062 68.730469 339.445312 67.425781 340.328125 66.179688 C 341.210938 64.933594 342.183594 63.765625 343.25 62.671875 C 344.3125 61.578125 345.457031 60.574219 346.675781 59.65625 C 347.894531 58.742188 349.179688 57.925781 350.527344 57.207031 C 351.871094 56.488281 353.265625 55.878906 354.707031 55.378906 L 335.457031 40.511719 L 334.957031 40.082031 L 322.242188 30.3125 L 300.695312 49.992188 L 264.785156 83.25 L 230.738281 114.566406 L 187.644531 154.429688 L 179.3125 146.816406 L 155.898438 125.769531 L 155.898438 148.109375 L 166.957031 158.308594 L 175.289062 165.921875 L 187.429688 177.125 L 230.523438 216.988281 L 230.523438 375.007812 L 264.710938 341.25 L 277.566406 328.609375 C 275.585938 327.25 273.792969 325.671875 272.195312 323.875 C 270.597656 322.078125 269.238281 320.117188 268.117188 317.988281 C 267 315.859375 266.152344 313.628906 265.574219 311.296875 C 264.996094 308.960938 264.710938 306.59375 264.710938 304.1875 L 264.710938 225.609375 L 230.667969 194.292969 L 199.496094 165.5625 L 230.667969 136.832031 L 264.710938 105.515625 L 300.625 72.257812 L 300.625 305.335938 L 313.910156 293.054688 L 319.296875 287.738281 L 325.691406 281.492188 L 335.171875 272.226562 L 347.882812 259.65625 C 345.890625 258.308594 344.089844 256.742188 342.476562 254.957031 C 340.867188 253.167969 339.496094 251.214844 338.363281 249.09375 C 337.230469 246.972656 336.371094 244.746094 335.78125 242.410156 C 335.191406 240.078125 334.894531 237.710938 334.882812 235.304688 Z M 334.882812 235.304688 " fill-opacity="1" fill-rule="nonzero"/></svg>