<svg xmlns="http://www.w3.org/2000/svg" xmlns:xlink="http://www.w3.org/1999/xlink" width="500" zoomAndPan="magnify" viewBox="0 0 375 374.999991" height="500" preserveAspectRatio="xMidYMid meet" version="1.0"><defs><clipPath id="4084055a62"><path d="M 3.75 3.75 L 371.25 3.75 L 371.25 371.25 L 3.75 371.25 Z M 3.75 3.75 " clip-rule="nonzero"/></clipPath><clipPath id="3b2500779e"><path d="M 187.5 3.75 C 86.015625 3.75 3.75 86.015625 3.75 187.5 C 3.75 288.984375 86.015625 371.25 187.5 371.25 C 288.984375 371.25 371.25 288.984375 371.25 187.5 C 371.25 86.015625 288.984375 3.75 187.5 3.75 " clip-rule="nonzero"/></clipPath><clipPath id="6811cc8be8"><path d="M 11.484375 11.484375 L 363.515625 11.484375 L 363.515625 363.515625 L 11.484375 363.515625 Z M 11.484375 11.484375 " clip-rule="nonzero"/></clipPath><clipPath id="48c6c2361b"><path d="M 187.5 11.484375 C 90.289062 11.484375 11.484375 90.289062 11.484375 187.5 C 11.484375 284.710938 90.289062 363.515625 187.5 363.515625 C 284.710938 363.515625 363.515625 284.710938 363.515625 187.5 C 363.515625 90.289062 284.710938 11.484375 187.5 11.484375 " clip-rule="nonzero"/></clipPath><clipPath id="5d2b6a9418"><path d="M 73 60 L 250 60 L 250 314.972656 L 73 314.972656 Z M 73 60 " clip-rule="nonzero"/></clipPath><clipPath id="d788197a79"><path d="M 165 79 L 302 79 L 302 314.972656 L 165 314.972656 Z M 165 79 " clip-rule="nonzero"/></clipPath></defs><g clip-path="url(#4084055a62)"><g clip-path="url(#3b2500779e)"><path fill="#5ce1e6" d="M 3.75 3.75 L 371.25 3.75 L 371.25 371.25 L 3.75 371.25 Z M 3.75 3.75 " fill-opacity="1" fill-rule="nonzero"/></g></g><g clip-path="url(#6811cc8be8)"><g clip-path="url(#48c6c2361b)"><path fill="#000000" d="M 11.484375 11.484375 L 363.515625 11.484375 L 363.515625 363.515625 L 11.484375 363.515625 Z M 11.484375 11.484375 " fill-opacity="1" fill-rule="nonzero"/></g></g><g clip-path="url(#5d2b6a9418)"><path fill="#ffffff" d="M 216.835938 129.117188 L 240.0625 107.734375 L 240.0625 74.78125 C 240.0625 74.167969 240.121094 73.5625 240.242188 72.960938 C 240.359375 72.359375 240.535156 71.777344 240.769531 71.210938 C 241.003906 70.644531 241.289062 70.105469 241.628906 69.59375 C 241.96875 69.082031 242.355469 68.609375 242.785156 68.175781 C 243.21875 67.742188 243.6875 67.355469 244.195312 67.011719 C 244.703125 66.667969 245.242188 66.378906 245.804688 66.144531 C 246.371094 65.90625 246.953125 65.726562 247.554688 65.605469 C 248.152344 65.480469 248.757812 65.417969 249.371094 65.417969 L 249.371094 60.167969 L 125.15625 60.167969 L 125.15625 65.417969 C 125.769531 65.417969 126.378906 65.476562 126.984375 65.597656 C 127.585938 65.714844 128.171875 65.894531 128.738281 66.128906 C 129.304688 66.363281 129.84375 66.652344 130.355469 66.996094 C 130.867188 67.335938 131.339844 67.722656 131.773438 68.160156 C 132.210938 68.59375 132.597656 69.066406 132.9375 69.578125 C 133.28125 70.089844 133.566406 70.628906 133.804688 71.199219 C 134.039062 71.765625 134.214844 72.351562 134.335938 72.957031 C 134.457031 73.558594 134.515625 74.167969 134.515625 74.78125 L 134.515625 115.777344 L 110.015625 93.074219 L 95.316406 79.636719 L 86.691406 86.304688 L 86.300781 86.601562 L 73.117188 96.75 C 74.101562 97.09375 75.054688 97.511719 75.972656 98 C 76.890625 98.488281 77.765625 99.046875 78.597656 99.671875 C 79.429688 100.296875 80.210938 100.984375 80.9375 101.730469 C 81.660156 102.476562 82.324219 103.277344 82.929688 104.125 C 83.53125 104.976562 84.0625 105.867188 84.527344 106.796875 C 84.992188 107.730469 85.382812 108.695312 85.699219 109.6875 C 86.011719 110.679688 86.25 111.691406 86.40625 112.71875 C 86.566406 113.75 86.644531 114.785156 86.644531 115.828125 L 86.644531 219.59375 C 86.648438 221.230469 86.457031 222.84375 86.070312 224.433594 C 85.679688 226.023438 85.105469 227.539062 84.34375 228.988281 C 83.585938 230.4375 82.660156 231.773438 81.574219 232.996094 C 80.488281 234.21875 79.269531 235.292969 77.921875 236.21875 L 86.644531 244.796875 L 87.621094 245.730469 L 93.109375 251.125 L 97.472656 255.390625 L 101.097656 259.019531 L 109.867188 267.40625 L 109.867188 108.324219 L 134.367188 131.03125 L 134.367188 266.523438 C 134.371094 268.164062 134.171875 269.78125 133.78125 271.375 C 133.386719 272.96875 132.808594 274.492188 132.042969 275.945312 C 131.28125 277.398438 130.351562 278.738281 129.261719 279.964844 C 128.171875 281.191406 126.949219 282.265625 125.597656 283.195312 L 134.515625 291.925781 L 157.742188 314.726562 L 157.742188 72.132812 L 216.835938 72.132812 Z M 216.835938 129.117188 " fill-opacity="1" fill-rule="nonzero"/></g><g clip-path="url(#d788197a79)"><path fill="#ffffff" d="M 287.933594 219.59375 L 287.933594 115.828125 C 287.933594 114.785156 288.011719 113.75 288.167969 112.71875 C 288.328125 111.691406 288.566406 110.679688 288.878906 109.6875 C 289.195312 108.695312 289.585938 107.730469 290.050781 106.796875 C 290.511719 105.867188 291.046875 104.976562 291.648438 104.125 C 292.25 103.277344 292.914062 102.476562 293.640625 101.730469 C 294.367188 100.984375 295.148438 100.296875 295.980469 99.671875 C 296.8125 99.046875 297.6875 98.488281 298.605469 98 C 299.523438 97.511719 300.476562 97.09375 301.460938 96.75 L 288.328125 86.601562 L 287.984375 86.304688 L 279.3125 79.636719 L 264.609375 93.074219 L 240.109375 115.777344 L 216.886719 137.160156 L 187.484375 164.375 L 181.800781 159.175781 L 165.828125 144.808594 L 165.828125 160.058594 L 173.371094 167.023438 L 179.058594 172.222656 L 187.335938 179.871094 L 216.738281 207.089844 L 216.738281 314.972656 L 240.0625 291.925781 L 248.832031 283.292969 C 247.480469 282.367188 246.257812 281.289062 245.167969 280.0625 C 244.078125 278.835938 243.152344 277.496094 242.386719 276.042969 C 241.621094 274.589844 241.042969 273.066406 240.652344 271.472656 C 240.257812 269.878906 240.0625 268.261719 240.0625 266.621094 L 240.0625 212.972656 L 216.835938 191.59375 L 195.570312 171.976562 L 216.835938 152.359375 L 240.0625 130.980469 L 264.5625 108.277344 L 264.5625 267.40625 L 273.628906 259.019531 L 277.300781 255.390625 L 281.664062 251.125 L 288.132812 244.796875 L 296.804688 236.21875 C 295.445312 235.296875 294.214844 234.230469 293.117188 233.007812 C 292.015625 231.789062 291.082031 230.453125 290.308594 229.007812 C 289.535156 227.558594 288.949219 226.039062 288.546875 224.445312 C 288.144531 222.851562 287.941406 221.234375 287.933594 219.59375 Z M 287.933594 219.59375 " fill-opacity="1" fill-rule="nonzero"/></g></svg>